# xmcd CD database file
#
# Track frame offsets:
#	150
#	18142
#	61237
#	75425
#	116625
#	128745
#
# Disc length: 1923 seconds
#
# Revision: 2
# Processed by: cddbd v1.5.1PL2 Copyright (c) Steve Scherf et al.
# Submitted via: CDex 1.50
#
DISCID=3d078106
DTITLE=Art Pepper - Two Altos Art pepper and Sonny Redd
DYEAR=1900
DGENRE=Jazz
TTITLE0=Deep Purple
TTITLE1=Watkins Products
TTITLE2=Everything Happens to Me
TTITLE3=Redd's Head
TTITLE4=These Foolish Things
TTITLE5=What's New
EXTD=
EXTT0=
EXTT1=
EXTT2=
EXTT3=
EXTT4=
EXTT5=
PLAYORDER=
